#!OML:ASF E:/inclinewalkrobotboard/Project1/Captureday1/Session1/subject1.ASF
:FULLY-SPECIFIED
:DEGREES
276
root 0 0 0 -2.763497106990367 -0.17754209351690875 1.0054679591385263
lowerback 10.370656825995209 -1.086726345720638 -2.7953932881961587
upperback 0.5857018931385691 -1.6607646405777512 1.6569231506504667
thorax -5.107365175458808 -0.7445230753651149 3.5343700438481664
lowerneck -16.83149386438179 -2.6269493993533337 -2.2583912289063814
upperneck 19.538500298248046 -3.188555739241046 0.5084845383595233
head 8.929518177550857 -1.6023702409368545 0.13454613243761893
rclavicle -4.1848999700863986E-16 -3.383153011924095E-16
rhumerus -29.41556275298781 -18.32425813320119 -78.1073520623561
rradius 26.37530285131866
rwrist 4.331171421643321
rhand -17.62663910554429 22.719909890065928
rfingers 7.125020000000028
rthumb 8.619632434985705 -7.101682103236282
lclavicle -7.282885945533165E-16 -1.900722819200087E-16
lhumerus -28.896465818624854 -3.071415197908099 82.19101935054123
lradius 35.31261056337563
lwrist 5.961625635626788
lhand -24.723782427738236 24.41898873665706
lfingers 7.123202696648598
lthumb 1.7492456349145424 53.75916229049451
rfemur -7.5863505136930645 9.52589386735323 27.450940126338807
rtibia 17.817067512155084
rfoot -17.932178146831532 -8.904993278709618
rtoes -3.9048966599283066
lfemur 4.547290283048758 -3.0025361611426655 -26.164017412554855
ltibia 21.73978256891327
lfoot -15.085003271014969 -0.57225276618819
ltoes -4.998859555918411
277
root 0 0 0 -2.77473029120233 -0.18953443758408994 1.129473398807547
lowerback 10.362243239574871 -1.130128514261156 -2.9294351029042414
upperback 0.5991489730998674 -1.73429094421695 1.6434590308405843
thorax -5.088213497127494 -0.7785398257414058 3.605878565338936
lowerneck -16.765252445994506 -2.6185899476886663 -2.2941502172323593
upperneck 19.507761546278687 -3.1774901958729687 0.5438117609815993
head 8.90725593875285 -1.5981660338851156 0.15456400653308622
rclavicle -4.294692175700743E-16 -3.320350995513092E-16
rhumerus -29.260495833161134 -18.17232837735895 -78.07258438044528
rradius 26.523711655210864
rwrist 4.364680318084562
rhand -17.652253343577 22.60362205304241
rfingers 7.125020000000026
rthumb 8.596011179190622 -7.215538233573589
lclavicle -7.424260529374362E-16 -1.9525779679239832E-16
lhumerus -28.808920362858156 -3.1821861717426323 82.18716104764746
lradius 35.5149129170357
lwrist 5.976993127322579
lhand -24.6562835672528 24.451224354788817
lfingers 7.123113078892181
lthumb 1.8144953282110912 53.774182538761124
rfemur -7.3392402024960095 9.378392130047837 27.649974998518886
rtibia 18.57976361395742
rfoot -17.579302293691853 -8.691543821939831
rtoes -3.457566877381261
lfemur 4.507933856857813 -2.80299094260645 -25.987954503250474
ltibia 23.323056498065366
lfoot -14.262431354394005 -1.3033541212940989
ltoes -5.3155998568856475
278
root 0 0 0 -2.7796720657295144 -0.15472265574389787 1.1875059767347351
lowerback 10.359639274741852 -1.155294762313262 -2.994567714762322
upperback 0.5998168004793976 -1.7750539217870558 1.6426971181324053
thorax -5.086188279123066 -0.7973370787865168 3.6472713687174823
lowerneck -16.762831128675558 -2.614532370944478 -2.300569199570398
upperneck 19.512512327896637 -3.1711008065800588 0.5442161100394296
head 8.90691390459425 -1.5953440835697454 0.15673335547889256
rclavicle -4.374742842691744E-16 -3.249872216136282E-16
rhumerus -29.127069184402337 -18.049220040150423 -78.04266002829743
rradius 26.647704284710482
rwrist 4.392972316004205
rhand -17.67414948522026 22.506321040711327
rfingers 7.125020000000024
rthumb 8.575576660436646 -7.311221684254555
lclavicle -7.50435350621588E-16 -1.966830558986811E-16
lhumerus -28.809508641598494 -3.1887568107926256 82.1886927389232
lradius 35.52189320984156
lwrist 5.9759932402471705
lhand -24.651036616960585 24.450408852178406
lfingers 7.123085254815994
lthumb 1.8199892581570953 53.77302148144834
rfemur -7.6809636781674975 8.668075633487682 27.701159525944156
rtibia 22.17392327189202
rfoot -15.926009222962879 -8.145465951105901
rtoes -1.9639238688121305
lfemur 3.7028685037826943 -2.487434214289963 -25.4047045277258
ltibia 25.947063063409438
lfoot -12.782415811600195 -2.329098710316483
ltoes -5.628896110663235
279
root 0 0 0 -2.770841935410192 -0.06588699964846789 1.1029619367583579
lowerback 10.364865301109084 -1.1364201932372429 -2.908165912595644
upperback 0.5789692245076425 -1.7388249154567754 1.6630859139480973
thorax -5.111808703298383 -0.7804624152065989 3.614712416754682
lowerneck -16.864226485642764 -2.6184930110885003 -2.25578724960267
upperneck 19.573997724721977 -3.1740998612479063 0.4869943962437029
head 8.942231690145602 -1.5956332521727763 0.12848742394090618
rclavicle -4.4391423793207763E-16 -3.170893604752804E-16
rhumerus -29.015908130271903 -17.95257264057377 -78.01832949643251
rradius 26.747306672766456
rwrist 4.415475348402657
rhand -17.692892103851154 22.427868005837844
rfingers 7.125020000000023
rthumb 8.55850026685301 -7.388592749814702
lclavicle -7.524229535076678E-16 -1.9340362609816083E-16
lhumerus -28.856325809027496 -3.1347949070256185 82.1917800939302
lradius 35.42330586197354
lwrist 5.968300854728947
lhand -24.682746698910325 24.433344673484317
lfingers 7.12310268144161
lthumb 1.7901292089028775 53.76375733572766
rfemur -7.707619375029029 7.881673429160106 27.988726667147592
rtibia 26.063037764234203
rfoot -14.168259968585534 -7.45338786085334
rtoes -0.1779254803033421
lfemur 1.6981670566428146 -2.048896031674133 -24.214204783965737
ltibia 29.74020825460065
lfoot -10.55451052691099 -3.563725443714251
ltoes -5.877746545064272
